<?xml version="1.0" encoding="utf-8"?>
<!-- Generator: Adobe Illustrator 21.1.0, SVG Export Plug-In . SVG Version: 6.00 Build 0)  -->
<svg version="1.1" id="Слой_1" xmlns="http://www.w3.org/2000/svg" xmlns:xlink="http://www.w3.org/1999/xlink" x="0px" y="0px"
	 viewBox="0 0 175 242" style="enable-background:new 0 0 175 242;" xml:space="preserve">
<style type="text/css">
	.st0{fill:#EFE400;}
	.st1{fill:#F9AF19;}
	.st2{fill:#DD7711;}
</style>
<path id="path0_fill" class="st0" d="M140.3,0L57.9,22.5l1.9,6.7c0,0-0.8-0.2,0.5,2.6c1.4,2.8,1.7,4.1,2.2,5.8
	c0.5,1.7,1.1,3,1.9,5.7c0.8,2.7,2.5,7.1,2.9,8.5c0.4,1.4,0.7,1.5,1.4,4.2s0.8,1.6,1.7,8c0.9,6.4,1.5,6.1,2,9.5
	c0.5,3.3,1.5,6.9,2.3,8.9c0.8,2,2.1,3.8,2.2,5.8c0.1,2,0.5,4.4,1.2,6.4c0.7,2,0.7,4.8,1.1,6.5c0.5,1.7,1.1,4.5,1.4,5.4
	c0.2,0.8,0.5,1.7,0.5,1.7s5.2-1.3,10.8-3.3c5.7-2,14.7-5.2,20.4-6.4c5.7-1.2,13.3-3.3,19.2-5.3c5.9-2,9.7-2.2,12.5-2.7
	c2.8-0.5,5.4-1.8,6.6-2.3c1.2-0.5,3.4-1.8,3.4-1.8l-1.4-2c-6.7,0.2-8.3-0.2-6.4-3.4c6.4-2.5,8.2-4.2,8.2-4.2s-1.3-1.6-2-5.5
	c-0.7-3.9-1.1-8.2-2.5-12.9c-1.4-4.8-0.3-5.8-1.4-9.6s-2-11.7-2.3-13.1c-0.2-1.4-0.8-9.9-1.5-15.8c-0.7-5.9-1.9-11-2.2-12.5
	S140.3,0,140.3,0z"/>
<path d="M136,165.5c-0.1,0-0.2,0-0.2,0c0.2-0.1,1.2-0.9,1.8-1.5c0.3-0.3,0.7-0.6,1-0.9c0.2-0.2,0.5-0.5,0.8-0.8
	c1.2-1.1,2.9-2.8,5.4-4.2c1.9-1.1,2.9-2.1,4.1-3.1c0.7-0.6,1.4-1.2,2.3-1.9c1.2-0.9,1.9-1.6,2.7-2.5c0.7-0.7,1.4-1.5,2.5-2.5
	c1.4-1.2,1.7-1.6,2-2.1c0.3-0.3,0.5-0.7,1.3-1.4c1.2-1.1,2-2.1,3.1-3.3c0.3-0.3,0.6-0.7,0.9-1c1.2-1.4,1.2-2.1,1.3-3.1l0-0.2
	c0.1-1.3,0.1-1.4,0.9-2.6c0.4-0.7,0.8-2,1-2.8c0.1-0.5,0.2-0.7,0.3-0.8c0.2-0.3,1.1-3.2,2.2-8.2c0.8-3.8,1-8.7,1.2-12
	c0-1.1,0.1-2,0.1-2.6c0.2-2.5,0.6-6.4,0.9-9.1c0.3-2.6,0.5-4.2,1-6.1c0-0.2,0.1-0.3,0.1-0.4c0-0.3,0-0.7,0.1-1.2
	c0.3-1.4,0.2-2.6,0.2-3.8c0-0.3,0-0.6,0-1c0-1,0-2.2,0.1-3.3c0-0.7,0.1-1.2,0.1-1.6c0-0.4,0-0.8,0-1.2c0-0.7,0.1-1.6,0-2.1
	c-0.2-0.8-0.5-1.3-1.1-1.6c-0.2-0.1-0.3-0.2-0.4-0.2c-0.5-0.3-0.8-0.5-1.2-1.4c-0.5-1-0.6-1.1-1-1.5c-0.1-0.1-0.1-0.1-0.3-0.2
	c-0.4-0.2-0.8-0.4-1.4-1.1c-0.7-0.8-0.9-1-1.1-1.4c-0.1-0.1-0.1-0.2-0.3-0.4c-0.2-0.3-0.2-0.3-0.7-0.2c-0.1,0-0.2,0-0.3,0l-0.2,0
	c-0.8,0.1-1.1,0.1-1.9-0.3c-0.5-0.3-0.8-0.6-1.1-0.9c-0.2-0.2-0.3-0.4-0.6-0.6c-0.3-0.2-0.5-0.2-0.9,0.1c-0.2,0.2-0.6,0.3-1,0.5
	c-0.4,0.2-0.8,0.4-1.3,0.6c-1,0.5-2.2,1.5-2.6,2.2c-0.4,0.7-1,1-1.4,1.3c-0.1,0-0.1,0.1-0.2,0.1c0.2,0.4,0.6,1.2,1.1,1.9
	c0.1,0,0.1,0.1,0.2,0.2c0.4,0.5,0.2,1.2,0.2,1.4c-0.3,1.2-1.1,1.6-2.2,2.2c-0.8,0.4-1.3,0.5-2.1,0.6c-0.4,0.1-0.9,0.2-1.7,0.3
	c-1.5,0.4-2.5,1.3-2.9,1.6c0,0-0.1,0.1-0.1,0.1c-0.1,0.2-0.2,0.7-0.2,1.3c0,0.3,0.1,0.5,1.2,0.8c0.5,0.1,0.6,0.1,0.9,0.1
	c0.2,0,0.5-0.1,0.9,0l0.2,0c0.7,0,0.8,0.1,2.4-0.3c0.7-0.1,1.9-0.4,2.1,0.8c0,0,0,0,0,0.1c0.7,0.5,1.2,1,1.2,1.1l0.6,0.7l-2.1,1.2
	c0.2,0.1,0.5,0.2,0.7,0.2c0.1,0,0.4-0.1,0.6-0.3l1.9-1.6l-0.7,2.4c0,0-0.1,0.5,0.2,1.2c0.1,0.1,0.1,0.2,0.2,0.3c0.1,0,0.1,0,0.2,0
	c0.2,0,0.4-0.1,0.7-0.1c0.4,0,0.4,0,0.7-0.5c0.1-0.2,0.3-0.4,0.4-0.6c0.2-0.3,0.7-1,1.4-0.6c0.2,0.1,0.6,0.5,0.4,1.3l-0.1,0.3
	c0,0.2,0,0.5,0.1,1.1c0.2,1.7-0.5,4.2-1.2,6.4c-0.2,0.6-0.3,1.1-0.4,1.6c-0.6,2.5-1.5,4.9-3.5,9.2c-1.2,2.7-1.9,3.9-2.8,5.4
	c-0.6,1-1.2,2.1-2.1,3.9c-2.8,5.4-3.9,8.5-4.2,9.4c-0.6,1.9-2.7,5.5-4.1,6.9c-0.7,0.8-1.5,1.3-2.3,1.8c-0.7,0.4-1.4,0.9-2.2,1.6
	c-1.1,1-2.3,1.5-3.5,2.1c-0.9,0.4-1.9,0.9-3,1.5c-2.5,1.6-4.3,3.3-4.3,3.3l-1-1.1c0.1-0.1,2-1.9,4.6-3.5c1.2-0.7,2.2-1.2,3.2-1.6
	c1.2-0.5,2.2-1,3.1-1.8c0.9-0.8,1.7-1.3,2.4-1.7c0.7-0.5,1.4-0.9,2-1.5c1.2-1.3,3.2-4.7,3.7-6.4c0.4-1.1,1.5-4.3,4.3-9.6
	c0.9-1.8,1.6-2.9,2.2-3.9c0.9-1.5,1.5-2.7,2.7-5.3c1.9-4.3,2.8-6.6,3.4-9c0.1-0.5,0.3-1.1,0.5-1.7c0.6-2,1.3-4.5,1.1-5.9
	c0,0,0,0,0,0c-0.3,0.2-0.7,0.4-1.3,0.4c-0.2,0-0.4,0-0.5,0.1c-0.9,0.1-1.4,0-1.9-1.1c-0.2-0.3-0.3-0.6-0.3-0.9c-0.2,0-0.3,0-0.5,0
	c-0.5-0.1-1.7-0.4-2-1.1c-0.2-0.4-0.3-0.7-0.3-0.7l-0.1-0.5l1.5-0.9c-0.1-0.1-0.2-0.1-0.3-0.2c-0.3-0.2-0.5-0.5-0.5-0.7
	c-0.1,0-0.2,0-0.4,0.1c-1.6,0.3-1.9,0.3-2.7,0.3l-0.2,0c-0.3,0-0.4,0-0.6,0c-0.4,0-0.8,0.1-1.5-0.2c-0.7-0.2-2.2-0.7-2.3-2.2
	c0-0.8,0.1-2.1,0.7-2.6c0,0,0.1,0,0.1-0.1c0.4-0.4,1.7-1.5,3.6-2c0.8-0.2,1.3-0.3,1.8-0.3c0.7-0.1,1-0.2,1.6-0.5
	c1.1-0.6,1.3-0.7,1.4-1.2c0,0,0,0,0-0.1l-0.1-0.1c-0.4-0.7-1.3-2.3-1.5-2.9c-0.1-0.8,0.5-1.2,1-1.5c0.3-0.2,0.7-0.4,0.9-0.7
	c0.7-1.2,2.4-2.4,3.2-2.8c0.5-0.3,1-0.5,1.4-0.7c0.4-0.2,0.7-0.3,0.9-0.4c0.4-0.2,1.4-0.9,2.6,0.1c0.4,0.3,0.6,0.6,0.8,0.9
	c0.2,0.3,0.3,0.4,0.5,0.5c0.4,0.2,0.4,0.2,1,0.2l0.2,0c0.1,0,0.2,0,0.3,0c0.7-0.1,1.5-0.2,2.2,0.9c0.1,0.2,0.2,0.3,0.3,0.4
	c0.2,0.3,0.3,0.4,1,1.2c0.5,0.5,0.7,0.7,0.9,0.8c0.2,0.1,0.4,0.2,0.7,0.5c0.5,0.5,0.7,0.8,1.3,1.9c0.3,0.5,0.3,0.5,0.6,0.7
	c0.1,0.1,0.3,0.2,0.5,0.3c0.9,0.6,1.5,1.4,1.8,2.6c0.2,0.7,0.1,1.6,0.1,2.5c0,0.4,0,0.8,0,1.1c0,0.4,0,1-0.1,1.7
	c-0.1,1-0.1,2.2-0.1,3.2c0,0.3,0,0.6,0,0.9c0.1,1.3,0.1,2.6-0.2,4.2c0,0.2-0.1,0.3-0.1,0.4c0.1,0.3,0,0.7-0.2,1.2
	c-0.4,1.8-0.6,3.4-0.9,6c-0.3,2.6-0.7,6.5-0.9,9c0,0.6-0.1,1.5-0.1,2.6c-0.1,3.3-0.3,8.3-1.2,12.3c-1.1,5-2.1,8.1-2.3,8.5
	c0,0.1-0.1,0.4-0.2,0.6c-0.3,0.9-0.6,2.4-1.2,3.2c-0.6,0.9-0.6,0.9-0.6,1.9l0,0.2c0,1.1-0.1,2.2-1.6,4c-0.3,0.4-0.6,0.7-0.8,1
	c-1,1.2-1.9,2.3-3.2,3.5c-0.6,0.6-0.8,0.8-1.1,1.2c-0.3,0.5-0.7,1-2.2,2.3c-1.1,1-1.8,1.7-2.4,2.4c-0.9,0.9-1.6,1.7-2.9,2.7
	c-0.8,0.6-1.5,1.2-2.2,1.8c-1.1,1-2.3,2-4.3,3.2c-2.4,1.4-4.1,3-5.2,4.1c-0.3,0.3-0.6,0.6-0.9,0.8c-0.3,0.3-0.6,0.6-1,0.9
	c-1.7,1.5-2.1,1.8-2.6,1.8L136,165.5L136,165.5z M28.2,136.4l0-0.3c0,0,0.6-4.9,1-8c0.5-3.5-0.4-10-0.6-11.9c-0.3-2.2-1-3.6-1.4-4.5
	c-0.2-0.5-0.4-0.8-0.5-1.2c-0.1-0.7-0.1-1.7-0.1-2.4c0-0.2,0-0.4,0-0.5c0-1,0.3-2.8,1-5.2c0.6-2.1,1.1-6.5,1.5-10.3
	c0.2-1.3,0.3-2.5,0.4-3.5c0.4-3.1,0.3-7.5,0.2-10.1c0-0.9,0-1.5,0-2c0-0.9,0.2-2.4,0.3-3.9c0.2-1.4,0.3-3,0.3-3.4
	c-0.1-0.9,0-1.5,0.3-3.3c0.1-0.4,0.2-1,0.3-1.6c0.2-1.5,0.3-2.2,0.4-2.7c0.1-0.6,0.1-1,0.3-1.9c0.3-1.3,0.4-1.7,0.7-2.4
	c0.1-0.2,0.2-0.5,0.3-0.8c0.4-1.1,0.7-2.3,1-3.6c0.1-0.3,0.1-0.6,0.2-0.9c0.3-1.1,0.7-1.5,1.2-1.9c0.2-0.2,0.5-0.4,0.8-0.8
	c0.6-0.9,1.1-1.4,1.7-2c0.3-0.3,0.5-0.6,0.9-1c0.4-0.4,0.7-0.8,1-1.2c0.5-0.6,0.9-1.1,1.4-1.6c0.5-0.5,0.7-1.2,1-2.1l0.1-0.3
	c0.3-1.1,1-2.4,1.8-3.4c0.7-1,2-1.9,3.4-2.7c0.9-0.5,1-0.7,1.2-1.3c0-0.1,0-0.2-0.1-0.3c-0.8,0.2-2.5,0.6-3.4,0.7l-0.3,0
	c-1,0.2-2.1,0.3-2.7,0.6c-0.4,0.2-0.8,0.7-1,0.8L40,37.1l-0.3-1.8c0-0.1-0.1-0.6,0-1.8c0-0.2,0-0.3,0-0.5c0.1-0.8,0.1-1.2,0.8-2.7
	c0.6-1.3,0.8-2.2,0.9-3c0-0.2,0.1-0.3,0.1-0.4c0.1-0.3,0.1-0.5,0.2-0.8c0.1-0.6,0.3-1.2,0.3-1.6c0-0.4-0.5-1.2-1.1-1.7
	c-0.4-0.3-0.7-0.4-1.2-0.5c-0.2,0-0.5-0.1-0.7-0.2C38.7,22,38.6,22,38.6,22c0,0-0.1,0.1-0.1,0.1c-0.1,0.1-0.1,0.1-0.2,0.2l0,0
	c0,0,0,0,0,0c0,0.1-0.1,0.2-0.2,0.4c-0.1,0.2-0.2,0.5-0.4,1c-0.4,0.9-0.5,1.2-0.5,1.5c0,0.2-0.1,0.5-0.2,1c-0.3,1.3-0.5,1.7-1,1.9
	c-0.3,0.1-0.6,0-0.8-0.1c-0.3-0.3-0.5-0.7-0.7-1.8c-0.1-0.6-0.1-1.3-0.1-1.8c0-0.4,0-0.7,0-1c0-0.5-0.3-0.8-0.9-1.3
	c-0.4-0.4-1.6-0.2-2.2-0.1c-0.5,0.1-0.5,0.3-0.7,0.8c0,0.1-0.1,0.2-0.1,0.3c-0.1,0.3-0.2,2.4-0.3,4.3l-1.5,0c0,0,0-2.1,0-2.8
	c0-0.4-0.3-0.7-0.7-1.1c0,0,0,0,0,0c-0.1,0-0.2,0-0.3,0c-0.2,0-0.4,0-0.7,0c-0.7,0-1,0.1-1.2,0.3c-0.3,0.3-0.6,0.8-0.7,1.8
	c-0.1,0.8,0,3,0,3.8l-1.5,0.1c0,0-0.1-0.5-0.2-1.4c0-0.2,0-0.3-0.1-0.3l0,0c-0.2-0.2-0.6-0.6-0.8-0.8c-0.2,0-1,0.1-1.5,0.4
	c-0.2,0.1-0.3,0.4-0.4,0.9c0,0.2-0.1,0.4-0.1,0.5c-0.1,0.6-0.2,1.4-0.3,3.4c-0.1,2-0.2,4.3-0.6,6.7c-0.4,2.2-0.4,3.3-0.2,5
	c0.2,1.1,0.4,2.1,0.6,3c0.1,0.6,0.2,1,0.3,1.3c0.1,0.5,0,1-0.1,1.6c-0.1,0.4-0.1,0.8-0.2,1.3c0,0.4,0,0.6,0,0.8c0,0.5,0,1-0.4,2.5
	c-0.6,2.2-1.5,7-1.7,8c-0.4,2-1.4,7.3-2.9,11.3c-1.4,3.8-2.9,11.9-2.9,13c0,0.5-0.1,1-0.2,1.7c-0.1,0.9-0.3,2.4-0.6,5
	c-0.3,2.7-0.4,3.1-0.5,3.4c0,0.1-0.1,0.2-0.1,1.1c0,1.1-0.1,2-0.2,2.8c-0.1,1-0.2,1.8-0.1,2.3c0.1,0.7-0.2,1.6-0.4,2.4
	c-0.1,0.5-0.3,0.9-0.3,1.3c-0.1,0.5,0.1,0.9,0.2,1.5c0.2,0.5,0.3,1.1,0.4,1.8c0.2,1.4-0.2,2.5-0.6,3.7c-0.1,0.4-0.3,0.8-0.4,1.2
	c-0.4,1.5-0.5,2.1-0.7,4.3c0,0.4-0.1,0.9-0.1,1.4c-0.2,2-0.3,2.3-0.5,2.8c-0.1,0.2-0.2,0.4-0.4,1.3c-0.2,1-0.3,2-0.4,2.9
	c-0.1,1.1-0.3,2.2-0.6,3.3c-0.4,1.4-0.6,2.2-1.4,2.1c-0.4,0-0.7-0.3-0.7-0.7L6,132c0-0.3-0.3-0.6-0.6-0.6c-0.3-0.1-0.6,0.1-0.7,0.3
	c0,0,0.1-0.2,0.4-1.3c0.3-1,0.4-2,0.5-3.1c0.1-0.9,0.2-1.9,0.5-3c0.2-1,0.4-1.3,0.5-1.6c0.1-0.2,0.2-0.4,0.4-2.3
	c0.1-0.5,0.1-1,0.1-1.4c0.2-2.2,0.3-3,0.8-4.6c0.1-0.5,0.3-0.9,0.4-1.2c0.4-1.2,0.7-2,0.6-3c-0.1-0.6-0.2-1.1-0.4-1.6
	c-0.2-0.7-0.4-1.3-0.3-2.1c0.1-0.5,0.2-1,0.3-1.5c0.2-0.7,0.4-1.4,0.3-1.9c-0.1-0.6,0-1.5,0.1-2.5c0.1-0.8,0.2-1.7,0.2-2.8
	c0-1.1,0.1-1.2,0.2-1.5c0.1-0.2,0.2-0.5,0.4-3.1c0.3-2.7,0.5-4.1,0.6-5.1c0.1-0.7,0.1-1.1,0.2-1.5c0.1-1.2,1.5-9.4,3-13.5
	c1.4-3.9,2.4-9.1,2.8-11c0.2-0.9,1.1-5.8,1.7-8c0.3-1.2,0.3-1.6,0.3-2.1c0-0.3,0-0.6,0-1c0-0.6,0.1-1.1,0.2-1.4
	c0.1-0.5,0.1-0.8,0.1-1.1c0-0.2-0.1-0.7-0.2-1.2c-0.2-0.9-0.4-1.9-0.6-3.1c-0.3-1.8-0.2-3.1,0.2-5.5c0.4-2.3,0.5-4.6,0.6-6.5
	c0.1-2.2,0.1-3,0.3-3.7c0-0.1,0-0.3,0.1-0.4c0.1-0.6,0.2-1.5,1.1-2.1c0.8-0.5,2.4-0.9,3.1-0.4c0.1,0,0.1,0.1,0.2,0.2
	c0-0.2,0-0.3,0-0.4c0.1-1.1,0.5-1.9,1.1-2.6c0.7-0.8,1.5-0.9,2.3-0.9c0.2,0,0.3,0,0.5,0c0.4-0.1,1-0.1,1.5,0.4
	c0.1-0.6,0.4-1.7,1.9-1.9c1.3-0.2,2.6-0.4,3.5,0.4c0.7,0.6,1.3,1.2,1.4,2.3c0,0.2,0,0.5,0,0.7c0.1-0.2,0.2-0.5,0.4-0.9
	c0.2-0.4,0.3-0.7,0.4-0.9c0.2-0.5,0.3-0.7,0.6-0.9l0,0c0,0,0.1-0.1,0.1-0.1c0.4-0.4,0.8-0.7,2-0.4c0.2,0.1,0.4,0.1,0.7,0.1
	c0.6,0.1,1.3,0.3,2,0.9c0.4,0.3,1.6,1.5,1.6,2.9c0,0.6-0.2,1.3-0.3,2c-0.1,0.2-0.1,0.5-0.2,0.7c0,0.1-0.1,0.3-0.1,0.4
	c-0.2,0.8-0.3,1.9-1.1,3.4c-0.6,1.3-0.6,1.5-0.7,2.1c0,0.1,0,0.2,0,0.3c0,0,0.1-0.1,0.1-0.1c0.7-0.3,2-0.5,3.1-0.7l0.3,0
	c1.1-0.2,3.1-0.6,3.4-0.7c0.4-0.2,0.9,0,1.2,0.3c0.4,0.4,0.8,1.3,0.5,2c-0.3,0.8-0.6,1.5-2,2.2c-1.2,0.6-2.3,1.4-2.9,2.2
	c-0.7,0.9-1.2,2-1.5,2.9l-0.1,0.3c-0.3,1-0.6,2-1.4,2.8c-0.4,0.4-0.8,0.8-1.3,1.4c-0.3,0.4-0.6,0.8-1,1.2c-0.3,0.4-0.6,0.7-0.9,1
	c-0.6,0.6-1,1.1-1.6,1.9c-0.4,0.6-0.8,0.9-1.1,1.1c-0.3,0.2-0.5,0.3-0.6,1c-0.1,0.3-0.1,0.6-0.2,0.9c-0.3,1.3-0.6,2.6-1,3.7
	c-0.1,0.4-0.2,0.6-0.3,0.9c-0.2,0.6-0.4,0.9-0.6,2.2c-0.2,0.9-0.2,1.2-0.3,1.8c-0.1,0.5-0.2,1.2-0.4,2.8c-0.1,0.6-0.2,1.1-0.3,1.6
	c-0.3,1.8-0.4,2.2-0.3,2.9c0,0.6-0.1,1.8-0.3,3.7c-0.2,1.4-0.3,2.9-0.3,3.7c0,0.4,0,1.1,0,1.9c0.1,2.7,0.2,7.1-0.3,10.3
	c-0.1,1-0.3,2.2-0.4,3.5c-0.5,3.9-1,8.3-1.6,10.5c-0.8,3.2-0.9,4.5-0.9,4.8c0,0.1,0,0.3,0,0.5c0,0.6,0,1.6,0.1,2.1
	c0,0.2,0.2,0.5,0.3,0.8c0.4,0.9,1.2,2.5,1.5,4.9c0.3,2,1.2,8.6,0.6,12.4c-0.4,3.1-1,7.9-1,8l0,0.3L28.2,136.4z M77.4,156.6l0.2-0.2
	c0.5-0.4,0.6-0.9,1-1.6c0.1-0.3,0.2-0.6,0.4-0.9c0.6-1.5,1-2.9,1.2-4.2c0.1-0.7,0.1-1.5,0.1-2.4c0-0.8,0-1.7,0.1-2.3
	c0.1-0.7,0.3-1.2,0.4-1.9c0.2-0.7,0.3-1.3,0.5-2.1c0.2-1.6,0.2-4.1,0-5.7c-0.2-1.7-0.1-2.5,0.1-3.2c0.1-0.7,0-1.4-0.2-2.2
	c-0.1-0.5-0.2-1-0.2-1.6c0-0.5-0.1-0.9-0.1-1.2c-0.1-0.6-0.1-1,0-1.7c0.2-1.1,0.1-2.6-0.1-4.6c0-0.4-0.1-0.8-0.1-1.3
	c0-0.4-0.1-0.7-0.1-1c-0.1-1.5-0.1-1.6-0.6-2.9l-0.1-0.2c-0.5-1.4-0.9-2.2-1.1-2.8c-0.1-0.1-0.1-0.3-0.2-0.4c-0.4-1-3.7-5-3.7-5.1
	c-1.1-1.3-1.5-1.9-2.2-2.8l-0.6-0.7c-1-1.3-3-2-4.5-2.5c-0.4-0.1-0.8-0.3-1-0.4c-1.5-0.6-6.6-1.1-7.1-1.1c-2-0.2-2.8,0.2-3.4,0.4
	c-0.1,0.1-0.3,0.1-0.4,0.1c-0.1,0-0.3,0.1-0.6,0.2c-1.1,0.4-3.4,1.1-4.7,1.2c-1.1,0.1-1.4,0.3-2,0.7c-0.4,0.2-0.9,0.6-2,1
	c-2.2,0.9-3,1.8-4.1,2.9c-0.3,0.3-0.6,0.7-1,1c-2.1,2-2.5,4.1-3.2,8.5c-0.5,3.1-0.4,3.7-0.2,4.9c0.1,0.5,0.2,1,0.2,2
	c0.1,1.8,0.1,2.7,0,3.5c0,0.6,0,1.2,0,2c0,1.7,0.2,2.6,0.5,4.1c0.1,0.4,0.2,0.9,0.3,1.5c0.3,1.8,0.6,2.5,1,3.5
	c0.2,0.5,0.4,1.1,0.7,1.9c0.2,0.5,0.3,0.9,0.4,1.3c0.5,1.6,0.8,2.2,0.9,3.2c0,0.2,0.1,0.5,0.1,0.7c0.1,1.1,0.3,2.3,0.7,3.6
	c0.2,0.7-0.3,1.8-0.6,2.5c-0.3,0.5-0.4,0.9-0.4,1.2h1.5c0,0,0,0.1,0,0.1c0-0.1,0.2-0.4,0.3-0.6c0.4-0.9,1.1-2.3,0.7-3.6
	c-0.4-1.1-0.5-2.2-0.6-3.3c0-0.2-0.1-0.5-0.1-0.7c-0.2-1.2-0.4-1.9-1-3.5c-0.1-0.4-0.3-0.8-0.4-1.3c-0.3-0.9-0.5-1.5-0.7-2
	c-0.4-1-0.6-1.6-0.9-3.2c-0.1-0.6-0.2-1.1-0.3-1.5c-0.3-1.5-0.5-2.3-0.5-3.8c0-0.8,0-1.4,0-1.9c0-0.9,0.1-1.8,0-3.6
	c-0.1-1.1-0.2-1.7-0.2-2.1c-0.2-0.9-0.2-1.4,0.2-4.4c0.7-4.7,1.1-6.1,2.7-7.6c0.4-0.4,0.8-0.8,1.1-1.1c1.1-1.1,1.7-1.7,3.6-2.6
	c1.2-0.5,1.8-0.9,2.2-1.1c0.5-0.3,0.6-0.4,1.4-0.5c1.5-0.2,3.8-0.9,5-1.3c0.2-0.1,0.4-0.1,0.5-0.2c0.2-0.1,0.4-0.1,0.5-0.2
	c0.5-0.2,1-0.4,2.7-0.3c2.6,0.2,5.8,0.6,6.6,1c0.3,0.1,0.7,0.3,1.1,0.4c1.2,0.4,3.1,1,3.8,1.9l0.6,0.7c0.7,0.9,1.1,1.4,2.2,2.8
	c1.6,2.1,3.3,4.3,3.5,4.8c0.1,0.1,0.1,0.3,0.2,0.4c0.3,0.6,0.6,1.3,1.1,2.6l0.1,0.2c0.4,1.2,0.4,1.2,0.5,2.5c0,0.3,0,0.6,0.1,1
	c0,0.5,0.1,0.9,0.1,1.3c0.2,1.8,0.3,3.2,0.1,4.1c-0.2,1-0.1,1.5,0,2.2c0,0.3,0.1,0.7,0.1,1.1c0.1,0.7,0.2,1.3,0.3,1.8
	c0.1,0.7,0.2,1.2,0.2,1.6c-0.2,1.1-0.3,2-0.1,3.7c0.2,1.8,0.2,4.1,0,5.3c-0.1,0.7-0.3,1.3-0.4,2c-0.2,0.6-0.3,1.3-0.4,2
	c-0.1,0.8-0.1,1.7-0.1,2.6c0,0.8,0,1.6-0.1,2.1c-0.2,1.1-0.5,2.5-1.1,3.9c-0.2,0.4-0.3,0.7-0.4,1c-0.3,0.7-0.4,0.9-0.6,1.1l-0.2,0.2
	L77.4,156.6z M76.9,143c0.6,0,0.8-0.2,1.3-1.1c0.4-0.7,0.2-1.7,0.1-2.2c0-0.1-0.1-0.3-0.1-0.3c0-0.1,0-0.3-0.2-1
	c-0.2-0.8-0.5-2-0.5-2.7c0-0.8,0.3-1.4,0.7-2.2c0.1-0.2,0.2-0.5,0.3-0.8c0.3-0.6,0.3-1,0.4-1.4c0.1-0.4,0.1-0.8,0.3-1.4
	c0.3-0.8,0.4-1.4,0.4-2.1c0-0.3,0-0.7,0.1-1.1c0.1-0.6,0-1-0.3-1.3c-0.2-0.2-0.6-0.4-1-0.3c-0.6,0-0.7,0.4-0.9,0.9
	c-0.1,0.2-0.1,0.3-0.2,0.5c-0.3,0.6-1.2,0.5-1.2,0.5l0,0.3c0,0,1.1,0.2,1.6-0.6c0.1-0.2,0.2-0.4,0.2-0.5c0.2-0.5,0.3-0.7,0.7-0.7
	c0.4,0,0.6,0.1,0.8,0.2c0.2,0.2,0.3,0.6,0.2,1.1c-0.1,0.4-0.1,0.8-0.1,1.1c0,0.6-0.1,1.2-0.4,2c-0.3,0.6-0.3,1-0.4,1.4
	c-0.1,0.4-0.1,0.8-0.4,1.3c-0.1,0.3-0.2,0.5-0.3,0.7c-0.4,0.8-0.7,1.4-0.7,2.3c0,0.7,0.3,1.9,0.6,2.8c0.1,0.4,0.2,0.7,0.2,0.8
	c0,0.1,0,0.2,0.1,0.4c0.1,0.5,0.3,1.3-0.1,2c-0.5,0.9-0.6,0.9-1.2,0.9c-0.1,0-0.2-0.1-0.4-0.2c-0.4-0.4-0.5-1.3-0.5-1.5
	c0-0.3,0.1-1.4,0-2l-0.3,0.1c0.1,0.6,0,1.6,0,1.9c0,0.3,0.2,1.2,0.6,1.7c0.2,0.2,0.4,0.3,0.6,0.3C76.7,143,76.8,143,76.9,143z
	 M62.1,146.3c0.6,0,1,0,1.3-0.1c0.7-0.2,1.5-1,2.4-2c0.6-0.6,1.3-1.3,2-1.9c1.8-1.5,2.7-3.9,3.5-6.1c0.1-0.3,0.2-0.5,0.3-0.7
	c0.3-0.8,0.7-1.8,1-2.8c0.6-1.7,1.2-3.4,1.6-4c0.7-1,1.6-1.9,1.6-1.9l-0.2-0.2c0,0-1,0.9-1.7,2c-0.5,0.7-1,2.4-1.7,4.1
	c-0.3,1-0.7,1.9-1,2.8c-0.1,0.2-0.2,0.5-0.3,0.7c-0.8,2.1-1.7,4.5-3.5,6c-0.8,0.7-1.5,1.3-2,1.9c-0.9,0.9-1.6,1.7-2.3,1.9
	c-1.1,0.4-5.1-0.1-6.8-0.9c-1.9-0.8-3.8-1.1-5.6-1.3c-2.2-0.2-4,0.2-4.9,0.5c-1,0.3-1.6,0.7-1.9,0.9c0,0-0.1,0.1-0.1,0.1
	c-0.3,0.2-0.6,0.6-0.6,0.7c0,0,0,0-0.2,0c-0.1,0-0.4-0.1-0.7-0.4c-0.7-0.7-0.9-1.3-1.6-3.2c-0.6-1.7-0.7-1.9-1.4-3.1
	c-0.1-0.2-0.2-0.4-0.4-0.7c-0.4-0.8-0.8-1.3-1.1-1.7c-0.4-0.5-0.7-0.9-0.9-1.8c-0.1-0.4-0.1-0.7-0.2-0.9c-0.2-0.7-0.2-0.9,0.2-2.1
	c0.1-0.3,0.1-0.5,0.2-0.7c0.3-1,0.3-1.2,0.9-1.3c0.6-0.2,0.7-0.1,0.7-0.1l0-0.1l0.2-0.1c-0.1-0.1-0.5-0.1-1,0
	c-0.7,0.2-0.8,0.5-1.1,1.5c-0.1,0.2-0.1,0.5-0.2,0.7c-0.4,1.3-0.3,1.5-0.2,2.3c0,0.2,0.1,0.5,0.2,0.9c0.2,1,0.5,1.4,1,2
	c0.3,0.4,0.7,0.9,1.1,1.6c0.1,0.3,0.3,0.5,0.4,0.7c0.7,1.2,0.8,1.4,1.4,3.1c0.7,1.9,0.9,2.6,1.7,3.4c0.8,0.8,1.3,0.4,1.3,0.3
	c0.1-0.1,0.4-0.5,0.6-0.6c0,0,0.1-0.1,0.1-0.1c0.3-0.2,0.9-0.6,1.9-0.9c0.9-0.3,2.6-0.7,4.7-0.4c1.8,0.2,3.6,0.5,5.5,1.3
	C57.7,145.9,60.3,146.3,62.1,146.3z"/>
<path d="M12.9,43.3c0.4,0,1.4-0.2,5.5-1.5l-0.5-1.4c-2.1,0.7-4.4,1.4-4.9,1.4c-0.1,0-0.1,0-0.2,0c-1-0.1-1.9-0.4-2.3-1.7
	c-0.2-0.5-0.3-1-0.5-1.4c-0.4-1.3-0.7-2-0.4-3c0.2-0.6,0.2-1,0.2-1.3c0-0.1,0-0.2,0-0.3c0.1,0,0.3-0.1,0.8-0.3
	c4.7-1.2,7.9-2.1,8.3-2.1c0,0-0.1,0-0.2,0l0.4-1.5c-0.3-0.1-0.4-0.1-8.9,2.1c-1.5,0.4-1.9,0.8-2,1.9c0,0.3,0,0.6-0.2,1
	c-0.5,1.5-0.1,2.6,0.4,3.9c0.1,0.4,0.3,0.9,0.5,1.4c0.7,2.3,2.8,2.6,3.5,2.7c0.1,0,0.1,0,0.2,0C12.8,43.3,12.8,43.3,12.9,43.3z
	 M40.7,35.1L53,32.5l3.1-2.9l0.3-1.3l3.6-0.9l-1.4-5.2l-3.5,1l-0.6-0.8l-0.4,0c0,0,0,0,0,0c-0.1,0-1.3,0-2.7-0.6
	c-1.5-0.6-2.3-0.3-2.6,0l-5.5,1.5l0.4,1.5l6-1.6l0.1-0.2c0.1,0,0.4-0.1,1.1,0.2c1.2,0.5,2.3,0.6,2.9,0.7l0.8,1.1l3-0.9l0.6,2.3
	l-3,0.8l-0.5,1.8l-2.5,2.3l-11.9,2.5L40.7,35.1z"/>
<path class="st1" d="M6.1,241.8c0,0,0.3-3.5,0-9.1c-0.1-1.1-0.1-1.9-0.2-2.6c-0.2-2.6-0.2-2.7,0.2-3.9c0.1-0.2,0.1-0.4,0.2-0.6
	l0.1-0.4c0.4-1.5,0.4-1.5,0.2-3l0-0.3c-0.2-1.4-0.2-2.3-0.2-3c0-0.4,0-0.8,0-1.2l0-0.4c-0.1-0.9-0.1-1.2-0.4-2.5
	c-0.2-0.7-0.1-1.3,0-1.8c0.1-0.6,0.2-1.1-0.4-2.3c-0.4-0.7-0.7-1-1-1.3c-0.8-0.9-1.2-1.5-1.1-3.8c0.1-1.7,0-2.3-0.1-2.9
	c-0.1-0.5-0.2-1.2-0.3-2.5c0-0.8,0-1.3,0-1.7c0-1.1,0-1.3,0-3.4c0-1.4,0.1-2.7,0.2-4c0.1-1.4,0.1-2.9,0.2-4.4c0-1.3,0.2-2.2,0.4-3
	c0.2-0.9,0.3-1.3,0-2c-0.2-0.5-0.3-0.8-0.4-0.9c-0.2-0.5-0.3-0.8-0.4-1.8c-0.1-0.7-0.1-1.2-0.1-1.6c0-0.7,0-1.3-0.2-2.1
	c-0.1-0.6-0.2-1-0.3-1.4c-0.1-0.6-0.2-1.1-0.5-2c-0.4-1.1-1.5-4.4-1.5-6.2c0-0.5,0-0.8,0-1.2c0-0.6,0.1-1.1,0-3
	c0-0.8-0.1-1.4-0.2-2.1c-0.2-1.9-0.3-3.6,0.2-6c0.3-1.4,0.4-1.9,0.4-2.3c0.1-0.5,0.1-0.9,0.5-2.4c0.6-2.5,0.8-4.6,0.9-6.1
	c0.1-1.5,0.2-2.3,0.6-5.1c0.5-2.9,1.5-4,2.7-5.3l0.3-0.3c0.3-0.3,0.5-0.6,0.7-0.8c0.7-1,1.3-1.6,3.9-2.4c0.4-0.1,0.7-0.2,1-0.3
	c2.5-0.7,3.6-1.1,6.1-0.9c2.6,0.1,5.1,0.4,6.6,1.7c0.2,0.2,0.5,0.5,0.9,0.7c1.4,1.1,3.1,2.4,3.5,4.1c0.3,1.1,0.6,2.4,0.9,3.3
	c0.1,0.5,0.3,1,0.4,1.3c0.2,0.8,0,1.6-0.1,2.2c-0.1,0.4-0.2,0.7-0.1,0.9c0,0.4,0.3,1,0.5,1.4c0.2,0.5,0.3,0.8,0.4,1.2
	c0,0.3,0,0.5,0,0.6c0.9,0.6,1.3,1.4,1.8,2.2c0.2,0.3,0.3,0.6,0.4,0.7c0.1,0.2,0.1,0.2,0.3,0.4c0.8,0.5,1.5,1.5,1.8,2l0,0.1
	c0,0,0.2,0.1,0.3,0.2c0.3,0.2,0.7,0.5,1.1,1.1c0.2,0.3,0.4,0.7,0.6,0.9c0.1,0,0.3,0,0.5,0c0.5,0,0.9,0.1,1.1,0.2
	c0.5-0.8,1.2-1.6,2.3-1.7c0.1,0,0.1,0,0.2,0c0.1-0.1,0.2-0.2,0.4-0.2c0.2-0.1,0.4-0.3,0.6-0.5c0.9-0.9,1.9-1.6,5-1.5
	c2.8,0.1,4.7,0.8,6.5,1.4c0.7,0.2,1.4,0.5,2.1,0.6c0.7,0.2,1.4,0.3,2.1,0.4c1.4,0.2,2.8,0.5,4.7,1.2l0.9,0.4c2,0.8,3.1,1.2,4.1,1.8
	c0.4,0.3,0.8,0.6,1.1,0.9c0.6,0.6,1.1,1,2,1.1c0.5,0,0.9,0.1,1.3,0.1c1.1,0.1,2.1,0.2,2.6-0.1c0.2-0.1,0.2-0.2,0.4-0.3
	c0.3-0.4,0.8-0.9,2-0.8c1.2,0,1.9,0.5,2.4,0.8c0.1,0.1,0.2,0.1,0.3,0.2c0.2,0.1,0.3,0.1,0.9-0.3c0.2-0.1,0.3-0.3,0.5-0.5
	c0.3-0.4,0.9-1.2,2-0.7c0.2,0.1,0.3,0.1,0.4,0.2c0.1,0,0.2,0.1,0.3,0.1c0-0.1,0.1-0.1,0.1-0.2c0.4-0.6,0.8-1.2,1.3-1.4
	c0,0,0.1-0.1,0.2-0.1c0.4-0.3,1.1-0.9,2.5-0.3c0.1,0,0.2,0.1,0.2,0.1c0.1-0.1,0.2-0.2,0.4-0.3c0.9-0.6,1.9-0.7,3-0.3
	c0.1,0.1,0.3,0.1,0.3,0.2c0,0,0,0,0,0c0.2-0.1,0.5-0.3,0.8-0.4c0.9-0.5,1.8-0.6,2.3-0.7c0.1,0,0.3-0.1,0.4-0.1
	c0-0.1,0.1-0.2,0.1-0.2c0.2-0.4,0.5-1.4,1.7-1.4c0.4,0,0.7,0.1,0.9,0.2c0.2,0.1,0.3,0.1,0.6,0.1c0.6-0.1,1.3-0.3,1.5-0.4
	c0.3-0.2,1.3-0.7,2.3-0.6c0.1,0,0.3,0,0.4,0c0.1-0.1,0.3-0.2,0.5-0.3l0.1-0.1c0.7-0.4,1.1-0.6,2-0.4c0.2,0,0.6-0.3,0.7-0.4
	c0.3-0.2,0.6-0.4,0.9-0.4c0.7,0,1.2,0,1.5,0.1c0.1,0,0.5,0,1,0l0.4,0c0.4,0,1.1-0.1,1.6-0.2c0.6-0.1,1-0.2,1.3-0.2
	c0.1,0,0.4,0,0.5-0.1c0.3,0,0.6-0.1,0.9-0.1c0.4-0.2,0.9-0.3,1.6-0.5c1-0.3,1.6-0.4,2-0.5c0.9-0.2,1.1-0.2,2.7-1.2
	c1.2-0.7,1.9-1,2.4-1.3c0.6-0.3,0.9-0.4,1.3-0.8c0.4-0.3,1-0.5,1.6-0.5c1.1,0,2.5,0.4,3.8,1.2c1.4,0.9,2.4,2.1,3.8,3.6
	c0.2,0.2,0.4,0.5,0.7,0.7l0.2,0.2c1.6,1.8,2.4,2.7,2.7,4.2c0.1,0.3,0.2,0.8,0.4,1.5c0.6,2,1.5,4.9,1.2,7c-0.4,2.5-0.7,3.8-1.5,5.2
	c-0.2,0.4-0.4,0.7-0.6,0.8c-0.1,0.2-0.4,1.1-0.5,1.4c-0.6,1.9-1.4,2.9-1.9,3.6c-0.2,0.2-0.3,0.4-0.4,0.6c-0.5,0.9-1.4,1.3-2.8,1.7
	c-0.2,0.1-0.5,0.2-0.8,0.3c-0.7,0.3-1.3,0.3-1.7,0.4c-0.6,0.1-0.8,0.1-1.2,0.8c-1.1,1.8-1.7,2-3.1,2.1l-0.3,0c-0.5,0-0.7,0-1-0.1
	c-0.4,0.1-1.7,0.8-2.2,1c-1.4,0.7-2.3,1-3,1.2c-0.9,0.3-1.2,0.4-2.1,1.5c-1.5,2-1.9,2.3-3.2,3.2c-0.2,0.1-0.4,0.3-0.6,0.5
	c-0.2,0.2-0.5,0.3-0.7,0.5c-1.2,0.8-1.7,1.2-2.2,2.5c-0.4,1-0.5,1.8-0.7,2.8c-0.1,0.7-0.2,1.3-0.4,2.2c-0.2,0.9-0.5,1.5-0.7,2
	c-0.3,0.6-0.5,1.1-0.7,2.1c-0.1,0.8-0.1,1.4-0.1,2c0,0.9,0,1.7-0.3,3.1c-0.1,0.4-0.2,0.7-0.3,1c-0.4,1.5-0.7,2.4-0.7,4.3
	c0,2.1,0,5.6,0,6.8c0,0.2,0,0.4,0,0.4c0,0.2-0.1,0.4-0.2,0.9c-0.3,0.8-0.9,2.4-1.1,4.9c-0.2,2.2-0.7,4.3-1.1,6.2
	c-0.3,1.2-0.5,2.2-0.6,3.1c-0.1,0.5-0.1,0.9-0.2,1.2c-0.2,1.1-0.2,1.3-0.1,3.3c0.1,2.5-0.1,3.6-0.2,4.6l-0.1,0.4
	c-0.2,1-0.1,2.2-0.1,2.2l-1.8,0.1c0-0.1-0.1-1.4,0.1-2.7c0-0.1,0-0.3,0.1-0.4c0.2-1,0.4-1.9,0.2-4.2c-0.1-2.1-0.1-2.4,0.1-3.7
	c0.1-0.3,0.1-0.7,0.2-1.2c0.1-1,0.4-2.1,0.6-3.2c0.4-1.8,0.9-3.9,1.1-6c0.3-2.7,0.9-4.5,1.2-5.3c0-0.1,0.1-0.2,0.1-0.3
	c0-0.1,0-0.2,0-0.3c0-1.3,0-4.7,0-6.8c0-2.2,0.4-3.3,0.8-4.8c0.1-0.3,0.2-0.6,0.3-1c0.3-1.1,0.3-1.8,0.3-2.6c0-0.6,0-1.3,0.1-2.3
	c0.2-1.3,0.5-2,0.8-2.6c0.2-0.5,0.4-0.9,0.6-1.7c0.2-0.7,0.3-1.4,0.4-2c0.2-1,0.3-2,0.8-3.1c0.7-1.8,1.6-2.4,2.8-3.3
	c0.2-0.1,0.4-0.3,0.6-0.5c0.2-0.2,0.5-0.3,0.7-0.5c1.1-0.8,1.4-1,2.8-2.8c1.2-1.5,1.9-1.8,3-2.1c0.6-0.2,1.4-0.4,2.6-1
	c2.4-1.2,2.8-1.4,3.5-1.2c0.1,0,0.2,0,0.4,0l0.3,0c0.9-0.1,1-0.1,1.7-1.2c0.8-1.4,1.6-1.5,2.5-1.7c0.4,0,0.8-0.1,1.3-0.3
	c0.3-0.1,0.6-0.2,0.8-0.3c1.1-0.4,1.6-0.6,1.8-0.9c0.2-0.3,0.4-0.6,0.6-0.8c0.5-0.6,1.1-1.4,1.6-3c0.5-1.6,0.6-1.8,1-2.1
	c0,0,0.1-0.1,0.2-0.4c0.6-1.1,0.9-2.3,1.3-4.6c0.2-1.6-0.6-4.4-1.1-6.2c-0.2-0.7-0.4-1.3-0.4-1.6c-0.2-1-0.9-1.7-2.3-3.4l-0.2-0.2
	c-0.2-0.3-0.4-0.5-0.7-0.7c-1.3-1.4-2.2-2.5-3.4-3.3c-0.9-0.6-2-1-2.7-0.9c-0.2,0-0.4,0.1-0.5,0.1c-0.5,0.4-1,0.7-1.6,1
	c-0.5,0.3-1.2,0.6-2.3,1.3c-1.8,1-2.1,1.1-3.2,1.4c-0.4,0.1-1,0.2-1.9,0.4c-0.5,0.1-0.9,0.3-1.1,0.3c-0.2,0.2-0.5,0.3-0.8,0.3
	c-0.1,0-0.3,0-0.4-0.1c-0.1,0-0.2,0-0.3,0c-0.3,0.1-0.6,0.1-0.8,0.1c-0.1,0-0.6,0.1-1,0.1c-0.6,0.1-1.2,0.2-1.8,0.2l-0.4,0
	c-0.7,0-1.2,0.1-1.6-0.1c0,0-0.2-0.1-0.8-0.1c0,0-0.1,0-0.1,0.1c-0.5,0.3-1.2,0.9-2,0.7c-0.3-0.1-0.3-0.1-0.9,0.3l-0.1,0.1
	c-0.2,0.1-0.3,0.2-0.4,0.2c-0.5,0.3-0.8,0.3-1.5,0.3c-0.6,0-1.2,0.3-1.4,0.4l-0.1,0.1l-0.1,0c0,0-1,0.3-1.9,0.5
	c-0.7,0.1-1.2,0-1.5-0.1c-0.1,0-0.2-0.1-0.2-0.1c0,0,0,0.1,0,0.1c-0.1,0.3-0.3,0.8-0.7,1.1c-0.4,0.3-0.8,0.4-1.3,0.4
	c-0.5,0.1-1.1,0.2-1.7,0.5c-1.2,0.7-1.6,0.9-2.4,0.5c-0.1,0-0.1-0.1-0.2-0.1c-0.5-0.2-0.9-0.2-1.3,0.1c-0.1,0.1-0.2,0.1-0.2,0.2
	c-0.7,0.7-1.3,0.6-2.2,0.2c-0.3-0.2-0.3-0.2-0.6,0c-0.1,0.1-0.3,0.3-0.6,0.4c-0.1,0.1-0.4,0.5-0.6,0.7c-0.3,0.4-0.5,0.7-0.7,0.9
	c-0.7,0.5-1.4,0.1-2-0.2c0,0-0.1,0-0.1-0.1c0,0,0,0,0,0c-0.2,0.3-0.5,0.6-0.9,0.9c-0.8,0.6-1.6,0.9-2.6,0.5
	c-0.2-0.1-0.4-0.2-0.6-0.3c-0.4-0.2-0.7-0.5-1.5-0.5c0,0-0.1,0-0.1,0c-0.2,0-0.3,0-0.3,0c0,0-0.1,0.1-0.1,0.1
	c-0.2,0.2-0.4,0.6-1,0.8c-0.9,0.4-2.1,0.3-3.5,0.2c-0.4,0-0.8-0.1-1.2-0.1c-1.6-0.1-2.4-0.9-3.1-1.6c-0.3-0.3-0.5-0.5-0.8-0.7
	c-0.9-0.5-1.8-0.9-3.8-1.7l-0.9-0.4c-1.7-0.7-3-0.9-4.3-1.1c-0.7-0.1-1.4-0.2-2.2-0.4c-0.8-0.2-1.5-0.4-2.3-0.7
	c-1.6-0.5-3.4-1.2-6-1.3c-2.5-0.1-3,0.4-3.6,0.9c-0.2,0.2-0.5,0.5-0.8,0.7c-0.4,0.2-0.5,0.3-0.5,0.4c-0.1,0.1-0.2,0.2-0.3,0.2
	l-0.8,0.3l-0.1-0.1c-0.2,0.1-0.4,0.4-0.8,0.9c-0.8,1.2-1.6,0.8-2,0.6c-0.2-0.1-0.3-0.1-0.4-0.1c-1.1,0.1-1.5,0.1-1.8-0.2l-0.1-0.1
	l0-0.1c0,0-0.4-0.6-0.9-1.3c-0.2-0.3-0.4-0.4-0.6-0.6c-0.2-0.2-0.5-0.4-0.7-0.7l0-0.1c-0.2-0.3-0.7-1.2-1.2-1.5
	c-0.6-0.4-0.8-0.8-1-1.2c-0.1-0.2-0.1-0.3-0.3-0.5c-0.5-0.8-0.8-1.3-1.3-1.6c-0.7-0.5-0.9-1-0.7-1.7c0-0.1,0-0.1,0-0.1
	c0-0.2-0.2-0.5-0.3-0.8c-0.3-0.6-0.5-1.4-0.6-2c0-0.5,0.1-1,0.2-1.4c0.1-0.5,0.2-1,0.1-1.4c-0.1-0.3-0.2-0.8-0.3-1.3
	c-0.3-1-0.6-2.2-0.9-3.4c-0.2-1.1-1.7-2.2-2.8-3.1c-0.3-0.3-0.7-0.5-0.9-0.8c-1-0.8-2.7-1.1-5.5-1.2c-2.2-0.1-3.1,0.1-5.5,0.9
	c-0.3,0.1-0.7,0.2-1,0.3c-2.2,0.6-2.4,1-2.9,1.7c-0.2,0.3-0.4,0.6-0.8,1l-0.3,0.3c-1.1,1.2-1.9,2-2.3,4.3c-0.4,2.7-0.5,3.4-0.6,4.9
	c-0.1,1.6-0.3,3.7-1,6.4c-0.4,1.4-0.4,1.7-0.5,2.2c-0.1,0.4-0.2,1-0.5,2.4c-0.5,2.1-0.3,3.6-0.1,5.4c0.1,0.7,0.1,1.4,0.2,2.2
	c0.1,2,0.1,2.6,0,3.2c0,0.3,0,0.6,0,1c0,1.3,0.8,4,1.4,5.5c0.4,1,0.5,1.6,0.6,2.3c0.1,0.4,0.1,0.8,0.3,1.3c0.2,1,0.2,1.7,0.3,2.5
	c0,0.4,0,0.9,0.1,1.5c0.1,0.8,0.1,0.9,0.3,1.2c0.1,0.2,0.3,0.5,0.5,1.2c0.4,1.1,0.2,1.9,0,2.9c-0.1,0.7-0.3,1.5-0.3,2.7
	c-0.1,1.5-0.1,3-0.2,4.4c-0.1,1.3-0.1,2.6-0.2,4c-0.1,2-0.1,2.2,0,3.3c0,0.4,0,0.9,0,1.7c0,1.2,0.1,1.7,0.2,2.2
	c0.1,0.7,0.3,1.3,0.2,3.3c-0.1,1.8,0.1,2,0.6,2.5c0.3,0.4,0.8,0.8,1.3,1.8c0.9,1.7,0.7,2.6,0.6,3.4c-0.1,0.4-0.1,0.7,0,1.1
	c0.3,1.4,0.3,1.8,0.4,2.7l0,0.4c0.1,0.5,0,1,0,1.5c0,0.7,0,1.4,0.2,2.6l0,0.2c0.3,1.8,0.3,1.9-0.2,3.8L8,226
	c-0.1,0.3-0.1,0.5-0.2,0.6c-0.3,1-0.3,1-0.1,3.3c0,0.7,0.1,1.5,0.2,2.6c0.4,5.8,0,9.3,0,9.4L6.1,241.8z M41.4,152.9
	c0.1-0.1,0.1-0.1,0.2-0.2C41.5,152.7,41.5,152.8,41.4,152.9z M40,151.8c0.1-0.1,0.2-0.2,0.3-0.3C40.1,151.5,40,151.7,40,151.8z
	 M10.7,143.7c0.4-0.3,2.7-1.4,4.3-1.6c1.5-0.2,3.1-0.6,3.9-0.8c0.2,0,0.3-0.1,0.5-0.2c0.7-0.3,1.6-0.6,3.7-0.7
	c2.6-0.1,4.1,2.6,4.1,2.7l0.3-0.1c-0.1-0.1-1.6-3-4.4-2.8c-2.2,0.1-3.1,0.5-3.8,0.7c-0.2,0.1-0.3,0.1-0.5,0.2
	c-0.8,0.2-2.3,0.6-3.8,0.8c-1.6,0.2-3.9,1.4-4.4,1.7L10.7,143.7z M25.5,138.1l0.2-0.2c-2.4-2.9-4.7-3.4-6.4-3.8l-0.4-0.1
	c-1.5-0.3-3.6,0.2-4.8,0.5c-0.2,0.1-0.4,0.1-0.5,0.1l0.1,0.3c0.1,0,0.3-0.1,0.5-0.1c1.1-0.3,3.2-0.8,4.6-0.5l0.4,0.1
	C21,134.8,23.2,135.3,25.5,138.1z M11.8,164.9c0,0,1.5-1.7,3.8-4.3c2-2.3,2.9-2.8,5.5-4.3c0.4-0.2,0.8-0.5,1.3-0.8
	c1.1-0.6,1.7-1,2.1-1.1l-0.6,0.5l0.9-0.4c0,0,2.5-1,3.4-1c0.9,0,1.9,0.3,2.7,0.7c0.9,0.5,2.1,0.3,3.5,0l0.1,0l0-0.3l-0.1,0
	c-1.3,0.2-2.5,0.4-3.3,0c-0.9-0.5-1.9-0.8-2.9-0.8c-0.8,0-2.3,0.6-3.1,0.9c0,0,0-0.1,0-0.1c-0.1-0.1-0.2-0.3-2.8,1.2
	c-0.5,0.3-0.9,0.5-1.3,0.8c-2.6,1.5-3.6,2-5.6,4.4c-2.2,2.6-3.8,4.3-3.8,4.3L11.8,164.9z M12.8,155.3c1.5-0.9,3.9-2,6.1-2.9l0.2-0.1
	c2.1-0.9,3.4-1.5,9.9-1.7l0-0.3c-6.3,0.2-7.7,0.7-10,1.8l-0.2,0.1c-2.2,1-4.6,2.1-6.1,2.9L12.8,155.3z M9.9,177.3
	c0,0,1.9-1.7,4.3-5.3c0.8-1.3,1.5-2.5,2.1-3.6c1.2-2.2,2.3-4.4,4.9-7l-0.2-0.2c-2.6,2.7-3.8,4.9-4.9,7.1c-0.6,1.2-1.2,2.3-2.1,3.6
	c-2.4,3.6-4.3,5.3-4.3,5.3L9.9,177.3z M91,179.8l0.3-0.2c-0.6-1-1.4-1.7-2.2-2.5c-1.6-1.5-3.5-3.4-6.1-8c-3.1-5.4-3.7-6.2-4-6.7
	c-0.1-0.1-0.2-0.3-0.3-0.5l-0.3,0.2c0.1,0.2,0.2,0.4,0.3,0.5c0.3,0.5,0.8,1.2,4,6.6c2.6,4.6,4.6,6.5,6.2,8
	C89.6,178.1,90.3,178.8,91,179.8z M107,157.2l0.3-0.2c-0.5-0.8-1.7-3-2.7-5.5l-0.3,0.1C105.2,153.9,106.5,156.3,107,157.2z
	 M105.8,159.5l0.2-0.2c-4.1-3.3-4.6-5-4.5-5.7c0-0.5,0.3-0.7,0.4-0.7l-0.1-0.3c0,0-0.5,0.3-0.5,0.9
	C101,154.5,101.8,156.3,105.8,159.5z M33.1,173.5c2.1,0,5.5-0.4,10.4-1.7c6.2-1.7,7.3-3.2,9.5-6.6c0.6-0.9,1.2-1.8,2.1-3
	c2.7-3.7,3.8-3.9,4.1-3.9c0.2,0,0.2,0.2,0.2,0.2l0.3-0.1c0,0-0.1-0.4-0.5-0.5c-0.8-0.2-2.3,1.2-4.4,4c-0.8,1.1-1.5,2.1-2.1,3
	c-2.3,3.4-3.2,4.8-9.4,6.5c-8.1,2.2-11.9,1.8-12.6,1.4l-0.1,0.3C31.1,173.3,31.9,173.5,33.1,173.5z M32.3,188c1.9,0,4.2-0.3,6.9-0.6
	c2.6-0.3,5.6-0.6,8.9-0.8l0-0.3c-3.3,0.2-6.3,0.5-8.9,0.8c-4,0.4-7.2,0.8-9.2,0.3l-0.1,0.3C30.5,187.9,31.3,188,32.3,188z
	 M52.4,221.9c3.2-0.2,10.5-2.1,20-5.2c10.7-3.5,19.4-12.4,19.5-12.5l-0.2-0.2c-0.1,0.1-8.7,8.9-19.3,12.4c-9.6,3.1-16.8,5-20,5.1
	L52.4,221.9z M66.4,230c9.3-3.6,12.3-6.1,16.8-10c1.8-1.6,3.9-3.3,6.7-5.5l-0.2-0.2c-2.8,2.1-4.9,3.9-6.7,5.5
	c-4.5,3.9-7.4,6.4-16.7,10L66.4,230z"/>
<path id="path22_fill" class="st2" d="M96.6,11.9c0,0,3,4.5,5.4,15.5s2.4,16.4,4.2,22.3c1.7,6,1.7,6,1.7,6s15.8-3.1,20.9-5.9
	c5.2-2.7,13.2-5.4,16-5.7c2.8-0.3,2.8-0.3,2.8-0.3s-1.5-10.5-2-15.9c-0.5-5.4-1.3-12.9-2.2-17c-0.8-4-2-7.8-2-7.8s-0.8-2.4-0.9-2.7
	c-0.1-0.3-0.2-0.6-0.2-0.6L96.6,11.9z"/>
<path id="path23_fill" class="st2" d="M81.2,108.1c0,0,4.1-1,6.9-2c2.8-0.9,8.4-2.9,9.6-3.3c1.2-0.4,5.5-1.9,7.1-2.4
	c1.6-0.5,4-1.2,5.4-1.6c1.4-0.3,6-1.4,6.6-1.5s5.9-1.6,6.2-1.6c0.2-0.1-2.5-13.1-5.7-22.2c-3.2-9.2-7-14.4-7.8-15.5
	c-0.8-1.1-1.7-2.2-1.7-2.2s-10.8,3.6-14,4.1c-3.3,0.5-6.7,0.1-11.4,1.7c-4.7,1.6-9.6,4-10.1,4.2S70.7,66,70.7,66s0.7,3.4,1,4.4
	c0.4,1,0.6,2.3,0.8,3.4c0.2,1,1,4.5,1,4.5l1.3,4.7c0,0,1.2,4.2,1.6,5.3c0.4,1.1,1.9,6.6,2,7.2c0.1,0.6,0.6,3.8,0.7,4.4
	c0.1,0.5,1.1,4.7,1.2,5C80.4,105.1,81.2,108.1,81.2,108.1z"/>
</svg>
