
    <svg xmlns="http://www.w3.org/2000/svg" viewBox="0 0 100 35" width="100" height="35">
        <polygon points="98,33.198 94.054,33.198 94.054,14.205 5.946,14.205 5.946,33.198 2,33.198 2,10.259 98,10.259" />
        <path d="M84.686,25.017h-2.311v8.181h2.311v-2.646l0.319-0.563l1.399,3.208h2.387l-2.281-4.957l2.19-3.224h-2.6l-1.414,2.615V25.017z M77.996,26.598c0.426,0,0.669,0.259,0.669,0.852v3.391c0,0.532-0.259,0.821-0.669,0.821c-0.426,0-0.7-0.289-0.7-0.867V27.45C77.296,26.918,77.524,26.598,77.996,26.598 M77.996,24.789c-1.749,0-3.011,0.776-3.011,3.117v2.387c0,2.342,1.277,3.133,3.011,3.133c1.734,0,2.98-0.791,2.98-3.148v-2.357C80.976,25.564,79.714,24.789,77.996,24.789 M68.02,33.198h3.528c1.551,0,2.19-1.125,2.19-2.235c0-1.171-0.471-1.673-1.399-2.038c0.791-0.289,1.247-0.806,1.247-1.901c0-1.277-0.928-2.007-2.22-2.007H68.02V33.198z M70.21,29.792h0.517c0.593,0,0.821,0.335,0.821,0.958c0,0.532-0.228,0.836-0.821,0.836H70.21V29.792z M70.21,26.629h0.395c0.563,0,0.791,0.228,0.791,0.836c0,0.578-0.228,0.852-0.791,0.852H70.21V26.629z M62.728,27.678v-0.289c0-0.623,0.228-0.988,0.745-0.988c0.532,0,0.715,0.319,0.715,0.654c0,0.501-0.182,0.669-0.699,0.927l-1.581,0.806c-0.989,0.502-1.49,1.186-1.49,2.418c0,1.612,0.76,2.22,2.007,2.22c1.14,0,1.566-0.593,1.901-1.262l0.137,1.034h2.22c-0.152-0.35-0.182-0.639-0.182-1.384v-4.668c0-1.521-0.913-2.357-3.011-2.357c-2.099,0-2.95,1.186-2.95,2.89H62.728z M64.188,29.138v1.277c0,0.851-0.274,1.232-0.821,1.232c-0.471,0-0.639-0.228-0.639-0.791c0-0.457,0.091-0.821,0.441-1.034C63.519,29.609,64.127,29.229,64.188,29.138 M54.06,25.017v1.84h1.597v6.341h2.311v-6.341h1.597v-1.84H54.06z M50.623,28.879v1.445c0,0.821-0.395,1.125-0.958,1.125c-0.547,0-0.897-0.335-0.897-1.156V24.85c0-0.563,0.457-0.806,0.897-0.806c0.411,0,0.958,0.274,0.958,0.851v0.989h2.631v-0.745c0-1.703-1.095-3.102-3.558-3.102c-2.494,0-3.558,1.369-3.558,3.087v4.76c0,2.509,1.14,3.573,3.558,3.573c2.433,0,3.558-1.08,3.558-3.558v-1.019H50.623z M36.983,27.678v-0.289c0-0.623,0.228-0.988,0.745-0.988c0.532,0,0.715,0.319,0.715,0.654c0,0.501-0.182,0.669-0.699,0.927l-1.582,0.806c-0.988,0.502-1.49,1.186-1.49,2.418c0,1.612,0.76,2.22,2.007,2.22c1.141,0,1.566-0.593,1.901-1.262l0.137,1.034h2.22c-0.152-0.35-0.183-0.639-0.183-1.384v-4.668c0-1.521-0.912-2.357-3.011-2.357c-2.099,0-2.95,1.186-2.95,2.89H36.983z M38.443,29.138v1.277c0,0.851-0.274,1.232-0.821,1.232c-0.472,0-0.639-0.228-0.639-0.791c0-0.457,0.091-0.821,0.441-1.034C37.774,29.609,38.382,29.229,38.443,29.138 M28.696,25.017v8.181h2.311v-6.341h2.813v-1.84H28.696z M21.046,25.017v8.181h2.281l1.992-5.307v0.03l-0.258,1.673v3.604h2.114v-8.181h-2.266l-1.992,5.292v-0.046l0.243-1.657v-3.589H21.046z M12.622,22.28v5.155c0,3.376-0.046,3.817-0.776,3.817c-0.259,0-0.517-0.03-0.639-0.091V33c0.456,0.198,0.852,0.319,1.414,0.319c1.779,0,2.539-1.08,2.539-5.216v-3.756h1.734v8.85h2.631V22.28H12.622z" />
        <path d="M4.367,1.636v0.476H2.529v1.547h0.628c0.86,0,1.534,0.291,1.534,1.395c0,0.945-0.569,1.342-1.428,1.342H2 V1.636H4.367z M2.529,5.92h0.602c0.634,0,1.011-0.192,1.011-0.866c0-0.76-0.43-0.919-1.164-0.919H2.529V5.92z" />
        <path d="M6.747,1.636l1.111,3.306l1.019-3.306h0.556L8.122,5.61C7.891,6.317,7.62,6.509,7.236,6.509 c-0.212,0-0.331-0.026-0.403-0.059V5.974c0.086,0.046,0.231,0.059,0.35,0.059c0.185,0,0.298-0.086,0.404-0.449L6.185,1.636H6.747z" />
        <polygon points="11.507,4.082 13.239,1.636 13.9,1.636 12.38,3.626 13.947,6.396 13.332,6.396 12.062,4.043 11.507,4.737 11.507,6.396 10.978,6.396 10.978,1.636 11.507,1.636" />
        <path d="M16.531,1.636l0.932,3.716c0.046,0.198,0.072,0.397,0.099,0.701h0.013c0.033-0.238,0.046-0.437,0.119-0.707 l0.946-3.71h0.932v4.761h-0.529V2.476c0-0.205,0.02-0.423,0.02-0.602h-0.02c-0.066,0.278-0.112,0.443-0.159,0.635l-0.998,3.888 h-0.628L16.26,2.456c-0.039-0.165-0.079-0.324-0.139-0.582h-0.013c0,0.251,0.02,0.41,0.02,0.615v3.908h-0.529V1.636H16.531z" />
        <polygon points="24.009,1.636 24.009,2.112 22.151,2.112 22.151,3.659 23.889,3.659 23.889,4.135 22.151,4.135 22.151,5.92 24.015,5.92 24.015,6.396 21.622,6.396 21.622,1.636" />
        <polygon points="26.408,4.082 28.141,1.636 28.802,1.636 27.281,3.626 28.848,6.396 28.233,6.396 26.964,4.043 26.408,4.737 26.408,6.396 25.879,6.396 25.879,1.636 26.408,1.636" />
        <polygon points="32.887,1.636 32.887,2.112 31.029,2.112 31.029,3.659 32.768,3.659 32.768,4.135 31.029,4.135 31.029,5.92 32.894,5.92 32.894,6.396 30.5,6.396 30.5,1.636" />
        <path d="M35.287,6.396h-0.529V1.636h1.322c0.867,0,1.435,0.403,1.435,1.342c0,1.111-0.675,1.402-1.534,1.402h-0.694 V6.396z M35.287,3.904h0.516c0.727,0,1.163-0.112,1.163-0.926c0-0.674-0.377-0.866-1.011-0.866h-0.668V3.904z" />
        <path d="M41.627,3.064c0-0.575-0.192-1.045-0.853-1.045c-0.919,0-0.926,1.296-0.926,1.924 c0,0.965,0.053,2.089,0.926,2.089c0.688,0,0.8-0.568,0.853-1.355h0.529c-0.06,1.097-0.331,1.831-1.343,1.831 c-1.402,0-1.514-1.428-1.514-2.552c0-1.071,0.198-2.413,1.501-2.413c0.899,0,1.356,0.668,1.356,1.521H41.627z" />
        <polygon points="44.575,4.082 46.308,1.636 46.969,1.636 45.448,3.626 47.015,6.396 46.4,6.396 45.131,4.043 44.575,4.737 44.575,6.396 44.046,6.396 44.046,1.636 44.575,1.636" />
        <path d="M49.626,1.636h0.701l1.336,4.761h-0.582l-0.377-1.369h-1.501l-0.35,1.369h-0.582L49.626,1.636z M49.97,2.019 h-0.013l-0.628,2.532h1.256L49.97,2.019z" />
        <path d="M55.312,4.373h-0.688l-1.038,2.023h-0.589l1.071-2.089c-0.542-0.172-0.912-0.516-0.912-1.329 c0-0.945,0.562-1.342,1.428-1.342h1.256v4.761h-0.529V4.373z M55.312,2.112H54.71c-0.634,0-1.005,0.192-1.005,0.866 c0,0.76,0.43,0.919,1.157,0.919h0.449V2.112z" />
        <polygon points="61.064,4.082 62.796,1.636 63.457,1.636 61.936,3.626 63.503,6.396 62.888,6.396 61.619,4.043 61.064,4.737 61.064,6.396 60.535,6.396 60.535,1.636 61.064,1.636" />
        <path d="M64.878,4.01c0-1.091,0.179-2.466,1.567-2.466c1.395,0,1.574,1.375,1.574,2.466 c0,1.316-0.185,2.499-1.574,2.499C65.057,6.509,64.878,5.326,64.878,4.01 M66.432,2.019c-0.813,0-1.005,0.84-1.005,1.904 c0,1.382,0.146,2.109,1.018,2.109c0.873,0,1.025-0.727,1.025-2.102C67.47,2.866,67.272,2.019,66.432,2.019" />
        <path d="M70.868,1.636L71.8,5.352c0.046,0.198,0.072,0.397,0.099,0.701h0.013c0.033-0.238,0.046-0.437,0.119-0.707 l0.946-3.71h0.932v4.761h-0.529V2.476c0-0.205,0.02-0.423,0.02-0.602h-0.02c-0.066,0.278-0.113,0.443-0.159,0.635l-0.998,3.888 h-0.629l-0.998-3.941c-0.039-0.165-0.079-0.324-0.139-0.582h-0.013c0,0.251,0.019,0.41,0.019,0.615v3.908h-0.528V1.636H70.868z" />
        <polygon points="78.834,1.636 78.834,6.396 78.305,6.396 78.305,2.112 76.487,2.112 76.487,6.396 75.958,6.396 75.958,1.636" />
        <path d="M81.842,1.636h0.701l1.336,4.761h-0.582L82.92,5.028h-1.501l-0.35,1.369h-0.582L81.842,1.636z M82.186,2.019 h-0.013l-0.628,2.532h1.256L82.186,2.019z" />
        <polygon points="86.06,3.659 87.878,3.659 87.878,1.636 88.407,1.636 88.407,6.396 87.878,6.396 87.878,4.135 86.06,4.135 86.06,6.396 85.531,6.396 85.531,1.636 86.06,1.636" />
        <path d="M90.985,1.636v3.888c0,0.172-0.006,0.357-0.013,0.529h0.013c0.067-0.218,0.086-0.39,0.192-0.655l1.481-3.762 h0.767v4.761h-0.529V2.601c0-0.245,0.007-0.489,0.013-0.727h-0.013c-0.046,0.284-0.099,0.556-0.185,0.774l-1.488,3.749h-0.767 V1.636H90.985z" />
        <path d="M97.471,4.373h-0.688l-1.038,2.023h-0.589l1.071-2.089c-0.542-0.172-0.912-0.516-0.912-1.329 c0-0.945,0.562-1.342,1.428-1.342H98v4.761h-0.529V4.373z M97.471,2.112h-0.602c-0.634,0-1.005,0.192-1.005,0.866 c0,0.76,0.43,0.919,1.157,0.919h0.449V2.112z" />
    </svg>