<svg xmlns="http://www.w3.org/2000/svg" viewBox="0 0 20 20" width="10" height="10">
        <path d="M18.247 1.935c-.287-.373-.73-.59-1.217-.59-.316 0-.644.088-.972.262L2.048 8.95c-.994.526-1.065 1.31-1.045 1.627.016.315.167 1.088 1.21 1.503l1.79.708c.342.135.722.203 1.13.203.065 0 .126-.006.19-.008-.025.032-.053.054-.076.087-.335.498-.35 1.178-.048 1.905.006.012.008.022.01.032.533 1.174 1.122 2.498 1.193 2.682.174.456.62.77 1.113.77.753 0 .98-.362 2.215-2.375.097-.148.31-.49.35-.927.143.06.278.113.395.162l1.983.808c.396.16.744.302.927.38.06.035.12.064.18.09.138.055.29.084.438.084.902 0 1.12-.782 1.236-1.2.054-.207.134-.494.218-.81l3.026-11.116c.23-.84-.05-1.376-.237-1.62zM8.733 15.45s-1.123 1.83-1.22 1.83l-.004-.003c-.11-.297-1.22-2.756-1.22-2.756-.204-.492-.168-.914.183-.914.077 0 .17.023.277.068l.862.448c.145.097.3.184.474.25l.04.017.085.037c.665.354.877.48.523 1.024zm8.612-12.207L14.322 14.36c-.17.624-.316 1.14-.32 1.14L14 15.482c0-.003-.495-.206-1.098-.454l-1.983-.81c-.603-.24-1.592-.637-2.2-.872l-.1-.04-.37-.192c-.367-.28-.4-.747-.03-1.14l6.14-6.574c.245-.264.338-.4.287-.4-.042 0-.18.088-.41.268L6.47 11.398c-.338.267-.853.412-1.336.412-.248 0-.49-.04-.696-.12l-1.787-.707c-.603-.24-.626-.68-.05-.986l14.01-7.343c.16-.087.3-.125.42-.125.3-.002.437.262.315.713zm0 0" />
    </svg>